<?xml version="1.0" encoding="iso-8859-1"?>
<!-- Uploaded to: SVG Repo, www.svgrepo.com, Generator: SVG Repo Mixer Tools -->
<svg fill="#000000" height="800px" width="800px" version="1.1" id="Layer_1" xmlns="http://www.w3.org/2000/svg" xmlns:xlink="http://www.w3.org/1999/xlink" 
	 viewBox="0 0 512 512" xml:space="preserve">
<g>
	<g>
		<g>
			<path d="M255.997,213.333c-82.325,0-149.333,66.987-149.333,149.333S173.672,512,255.997,512s149.333-66.987,149.333-149.333
				S338.323,213.333,255.997,213.333z M287.997,426.667c5.888,0,10.667,4.779,10.667,10.667c0,5.888-4.779,10.667-10.667,10.667h-64
				c-4.032,0-7.723-2.283-9.536-5.888c-1.813-3.605-1.408-7.936,1.003-11.157l44.8-59.733
				c11.008-14.699,17.067-32.875,17.067-51.221c0-11.755-9.557-21.333-21.333-21.333s-21.333,9.579-21.333,21.333v10.667
				c0,5.888-4.779,10.667-10.667,10.667s-10.667-4.779-10.667-10.667V320c0-23.531,19.136-42.667,42.667-42.667
				s42.667,19.136,42.667,42.667c0,22.933-7.573,45.675-21.355,64l-31.979,42.667H287.997z"/>
			<path d="M424.723,4.544C422.739,1.707,419.475,0,415.997,0H309.331c-4.501,0-8.512,2.837-10.048,7.083l-43.691,122.539
				L212.733,7.147C211.219,2.859,207.208,0,202.664,0H95.997c-3.477,0-6.741,1.707-8.725,4.544
				c-2.005,2.837-2.475,6.485-1.301,9.771l70.677,194.304c1.067,2.944,3.392,5.291,6.336,6.357c1.195,0.448,2.432,0.661,3.691,0.661
				c1.835,0,3.648-0.469,5.269-1.387C197.565,199.701,226.643,192,255.997,192c1.088,0,2.133,0.085,3.157,0.149l2.944,0.171h0.853
				c1.771,0,3.371-0.533,4.843-1.301l4.437,1.493c0.725,0.256,1.493,0.427,2.261,0.491c23.104,2.496,45.163,9.621,65.579,21.227
				c1.621,0.917,3.435,1.387,5.269,1.387c1.259,0,2.496-0.213,3.691-0.661c2.944-1.088,5.269-3.413,6.336-6.357l70.677-194.304
				C427.197,11.051,426.728,7.403,424.723,4.544z"/>
		</g>
	</g>
</g>
</svg>