<?xml version="1.0" encoding="iso-8859-1"?>
<!-- Uploaded to: SVG Repo, www.svgrepo.com, Generator: SVG Repo Mixer Tools -->
<svg fill="#000000" height="800px" width="800px" version="1.1" id="Layer_1" xmlns="http://www.w3.org/2000/svg" xmlns:xlink="http://www.w3.org/1999/xlink" 
	 viewBox="0 0 512 512" xml:space="preserve">
<g>
	<g>
		<g>
			<path d="M256,213.333c-82.347,0-149.333,66.987-149.333,149.333S173.653,512,256,512s149.333-66.987,149.333-149.333
				S338.347,213.333,256,213.333z M277.333,437.333c0,5.888-4.779,10.667-10.667,10.667S256,443.221,256,437.333V305.28
				l-27.221,13.611c-5.291,2.624-11.669,0.491-14.315-4.779s-0.491-11.669,4.779-14.315l42.667-21.333
				c3.307-1.664,7.211-1.493,10.368,0.469c3.136,1.963,5.056,5.376,5.056,9.067V437.333z"/>
			<path d="M424.747,4.565C422.741,1.707,419.477,0,416,0H309.333c-4.501,0-8.533,2.837-10.048,7.083l-43.691,122.496L212.736,7.125
				C211.243,2.837,207.189,0,202.667,0H96c-3.477,0-6.741,1.707-8.747,4.544c-1.984,2.837-2.475,6.464-1.28,9.771l70.677,194.304
				c1.067,2.944,3.392,5.291,6.336,6.357c1.195,0.448,2.453,0.661,3.691,0.661c1.813,0,3.648-0.469,5.269-1.387
				C197.589,199.701,226.645,192,256,192c1.067,0,2.112,0.085,3.157,0.149l2.944,0.171c0.213,0.021,0.427,0.021,0.619,0
				c1.643,0.192,3.349-0.427,4.949-1.323l4.544,1.536c0.747,0.256,1.493,0.427,2.261,0.491c23.104,2.496,45.163,9.621,65.579,21.205
				c1.621,0.917,3.456,1.387,5.269,1.387c1.237,0,2.496-0.213,3.691-0.661c2.944-1.088,5.269-3.413,6.336-6.357l70.677-194.304
				C427.221,11.051,426.731,7.403,424.747,4.565z"/>
		</g>
	</g>
</g>
</svg>